<svg xmlns="http://www.w3.org/2000/svg" width="310" height="83" viewBox="0 0 298.5 80.1">
  <style>
    .logo-decorated {fill:#fff}.st1{fill:#f9b200}
  </style>
  <path class="logo-decorated " d="M298.5 0l-40.7 66.7c-5 8.2-14.4 13.4-24.4 13.4H64.9c-10 0-19.4-5.1-24.4-13.4L0 .3 298.5 0z"/>
  <path class="st1" d="M96.5 62.7c2.1-2 3.1-5.1 3.1-9.3V23h-9v30.2c.1 1.3-.2 2.6-.8 3.7-.6.8-1.6 1.3-3 1.3-.6 0-1.3 0-1.9-.1s-1.1-.2-1.7-.4L82 65c1 .3 2.1.6 3.1.7.8.1 1.7.2 2.5.2 3.9-.2 6.8-1.2 8.9-3.2zm8.6-17.4c.6 1.9 1.7 3.7 3 5.1 1.5 1.5 3.2 2.7 5.2 3.4 2.3.9 4.8 1.3 7.3 1.2 1.1 0 2.2-.1 3.3-.2 1-.1 2.1-.3 3.1-.4l2.7-.6c.7-.2 1.3-.4 1.9-.7l-1.2-7.2c-1.2.5-2.5.9-3.8 1.1-1.6.3-3.2.4-4.8.4-2.5 0-4.6-.5-6.1-1.6-1.5-1-2.4-2.6-2.6-4.3h20.1c0-.5.1-1 .1-1.6s.1-1.2.1-1.7c0-5.3-1.3-9.2-3.9-11.9-2.6-2.7-6.1-4.1-10.5-4.1-1.9 0-3.8.4-5.6 1.1-1.8.7-3.4 1.8-4.8 3.1-1.4 1.5-2.6 3.3-3.3 5.2-.9 2.3-1.3 4.8-1.3 7.3.1 2.2.4 4.4 1.1 6.4zm8.1-9.7c.1-.8.3-1.5.6-2.2.2-.7.6-1.4 1.1-1.9.5-.6 1.1-1 1.8-1.3.8-.4 1.7-.5 2.6-.5s1.8.2 2.6.5c1.3.7 2.3 1.8 2.7 3.3.2.7.3 1.5.4 2.2-.2-.1-11.8-.1-11.8-.1zM144.3 23h-9.5c1.7 2.5 3.5 5 5.3 7.6 1.9 2.7 3.7 5.3 5.6 8l-3.3 3.9c-1.1 1.4-2.2 2.8-3.1 4.2l-2.7 4.2c-.7 1.2-1.3 2.3-2 3.5h9c.4-.8.9-1.7 1.4-2.6.5-.9 1.1-1.9 1.6-2.8.5-.8 1.1-1.6 1.8-2.3.6-.6 1.2-1.2 1.8-1.7.7.6 1.3 1.2 1.9 1.8.7.8 1.3 1.6 1.8 2.5.6 1 1.1 1.9 1.6 2.8l1.2 2.2h9.4c-1.4-2.6-2.9-5.2-4.6-7.6-2-3-4.2-5.9-6.6-8.6l10.8-15.3h-9.1l-6.2 8.8-6.1-8.6zm25.2 31.5h9V23h-9v31.5zm23.8-7c-.9-.5-1.4-1.5-1.4-2.9 0-.6.1-1.3.5-1.8.3-.5.8-.9 1.3-1.1.6-.3 1.3-.5 1.9-.6 1.4-.2 2.9-.2 4.3 0 .5.1 1.1.1 1.6.2V48c-.6.1-1.3.2-1.9.2-.8 0-1.6.1-2.5.1-1.3.1-2.6-.2-3.8-.8zm0-25c-1 .1-1.9.2-2.9.4-1.5.2-3 .6-4.5 1L187 31c1.2-.4 2.5-.7 3.8-.9 1.5-.2 3-.3 4.5-.3 2.3 0 3.9.5 4.8 1.4.9 1 1.4 2.3 1.4 3.6v.8c-.7-.2-1.4-.3-2.2-.4-1-.1-2-.2-3.1-.2-1.7 0-3.3.2-5 .5-1.5.3-2.9.9-4.2 1.6-1.2.7-2.2 1.8-2.9 3-.8 1.4-1.2 3-1.1 4.6-.1 1.7.3 3.3 1 4.8.6 1.3 1.6 2.4 2.7 3.2 1.3.9 2.7 1.5 4.3 1.8 1.8.4 3.7.6 5.5.5 2.8 0 5.5-.2 8.2-.6 2.3-.4 4-.7 5.3-1V35.2c0-1.8-.2-3.6-.7-5.3-.4-1.5-1.2-2.9-2.2-4-1.2-1.2-2.6-2.1-4.2-2.6-2.1-.6-4.3-1-6.6-.9-.9 0-2 0-3 .1z"/>
  <path d="M229 15.6l2.7-2.7c.3-.3.3-.7 0-1s-.7-.3-1 0l-2.8 2.8c-3.5-2.4-8-2.4-11.5 0l-2.8-2.8c-.3-.3-.7-.3-1 0s-.3.7 0 1l2.7 2.7c-4.1 3.8-4.3 10.2-.5 14.3s10.2 4.3 14.3.5 4.3-10.2.5-14.3c-.2-.1-.4-.3-.6-.5z" fill="#212121"/>
  <path class="st1" d="M227.7 20.2c1 0 2 .4 2.7 1-1-2.3-3.2-4.6-8.2-3.6-5.1-1-7.3 1.3-8.2 3.6 1.8-1.5 4.5-1.4 6 .4s1.4 4.5-.4 6c-.8.7-1.8 1.1-2.8 1.1-.5 0-.9-.1-1.3-.2.2.3.4.5.7.7 3.4 3.4 8.9 3.4 12.2 0l.7-.7c-.4.1-.8.2-1.3.2-2.3 0-4.3-1.9-4.3-4.3s1.8-4.2 4.2-4.2z"/>
  <path class="logo-decorated " d="M229.3 21.4c.6 0 1.1.4 1.1 1s-.4 1.1-1 1.1h-.1c-.6 0-1.1-.5-1.1-1.1s.5-1.1 1.1-1m-10.7 0c.6 0 1.1.4 1.1 1s-.4 1.1-1 1.1h-.1c-.6 0-1.1-.5-1.1-1.1s.5-1.1 1.1-1"/>
</svg>
